<svg viewBox="0 0 141 141" fill="none" xmlns="http://www.w3.org/2000/svg">
  <path fill-rule="evenodd" clip-rule="evenodd" d="M140.862 70.4819C140.862 109.231 109.45 140.643 70.7017 140.643C31.953 140.643 0.541016 109.231 0.541016 70.4819C0.541016 31.7333 31.953 0.321289 70.7017 0.321289C109.45 0.321289 140.862 31.7333 140.862 70.4819ZM80.9753 26.9911C77.9852 24.0011 73.9299 22.3213 69.7013 22.3213C65.4729 22.3214 61.4177 24.0013 58.4277 26.9913C55.4378 29.9813 53.7581 34.0366 53.7581 38.265L53.7581 54.2088H37.8143C33.5858 54.2088 29.5304 55.8886 26.5404 58.8786C23.5504 61.8686 21.8706 65.924 21.8706 70.1525C21.8706 74.3811 23.5504 78.4364 26.5404 81.4264C29.5304 84.4165 33.5858 86.0963 37.8143 86.0963C42.0429 86.0963 46.0982 84.4165 49.0883 81.4264C52.0783 78.4364 53.7581 74.3811 53.7581 70.1525V54.2088L85.6451 54.2088L85.6446 86.0963H69.7009C66.5476 86.0964 63.4652 87.0315 60.8434 88.7834C58.2217 90.5353 56.1783 93.0253 54.9716 95.9385C53.765 98.8518 53.4493 102.057 54.0645 105.15C54.6797 108.243 56.1981 111.083 58.4278 113.313C60.6574 115.543 63.4982 117.061 66.5909 117.676C69.6835 118.292 72.8891 117.976 75.8023 116.769C78.7156 115.563 81.2056 113.519 82.9575 110.897C84.7094 108.276 85.6445 105.193 85.6446 102.04V86.0963C103.256 86.0963 117.533 71.8197 117.533 54.2088L85.6451 54.2088V38.265C85.6451 34.0365 83.9653 29.9811 80.9753 26.9911Z" fill="#282650"/>
</svg>
