<svg width="530" height="141" viewBox="0 0 530 141" fill="none" xmlns="http://www.w3.org/2000/svg">
<path fill-rule="evenodd" clip-rule="evenodd" d="M140.862 70.4819C140.862 109.231 109.45 140.643 70.7017 140.643C31.953 140.643 0.541016 109.231 0.541016 70.4819C0.541016 31.7333 31.953 0.321289 70.7017 0.321289C109.45 0.321289 140.862 31.7333 140.862 70.4819ZM80.9753 26.9911C77.9852 24.0011 73.9299 22.3213 69.7013 22.3213C65.4729 22.3214 61.4177 24.0013 58.4277 26.9913C55.4378 29.9813 53.7581 34.0366 53.7581 38.265L53.7581 54.2088H37.8143C33.5858 54.2088 29.5304 55.8886 26.5404 58.8786C23.5504 61.8686 21.8706 65.924 21.8706 70.1525C21.8706 74.3811 23.5504 78.4364 26.5404 81.4264C29.5304 84.4165 33.5858 86.0963 37.8143 86.0963C42.0429 86.0963 46.0982 84.4165 49.0883 81.4264C52.0783 78.4364 53.7581 74.3811 53.7581 70.1525V54.2088L85.6451 54.2088L85.6446 86.0963H69.7009C66.5476 86.0964 63.4652 87.0315 60.8434 88.7834C58.2217 90.5353 56.1783 93.0253 54.9716 95.9385C53.765 98.8518 53.4493 102.057 54.0645 105.15C54.6797 108.243 56.1981 111.083 58.4278 113.313C60.6574 115.543 63.4982 117.061 66.5909 117.676C69.6835 118.292 72.8891 117.976 75.8023 116.769C78.7156 115.563 81.2056 113.519 82.9575 110.897C84.7094 108.276 85.6445 105.193 85.6446 102.04V86.0963C103.256 86.0963 117.533 71.8197 117.533 54.2088L85.6451 54.2088V38.265C85.6451 34.0365 83.9653 29.9811 80.9753 26.9911Z" fill="#282650"/>
<path d="M430.627 112.266C436.779 115.488 443.906 117.1 452.011 117.1C460.408 117.1 467.682 115.488 473.834 112.266C480.083 108.946 484.867 104.308 488.187 98.3523C491.605 92.3961 493.313 85.4635 493.313 77.5545V21.4307H476.324V77.5545C476.324 82.339 475.347 86.5376 473.394 90.1504C471.441 93.6655 468.61 96.4483 464.899 98.4988C461.287 100.452 457.088 101.428 452.304 101.428C447.617 101.428 443.467 100.452 439.854 98.4988C436.242 96.4483 433.41 93.6655 431.359 90.1504C429.407 86.5376 428.43 82.339 428.43 77.5545V21.4307H411.44V77.5545C411.44 85.4635 413.1 92.3961 416.42 98.3523C419.838 104.308 424.573 108.946 430.627 112.266Z" fill="#282650"/>
<path d="M513.002 21.4307V115.049H529.992V21.4307H513.002Z" fill="#282650"/>
<path fill-rule="evenodd" clip-rule="evenodd" d="M229.442 90.003L239.348 115.195H257.363L219.524 21.5762H201.509L163.816 115.195H181.831L191.738 90.003H229.442ZM223.51 74.9173L210.59 42.0615L197.67 74.9173H223.51Z" fill="#282650"/>
<path d="M292.718 116.952C287.836 116.952 283.345 116.22 279.244 114.755C275.143 113.291 271.628 111.24 268.698 108.604C265.769 105.87 263.523 102.696 261.961 99.0837L276.168 92.7858C277.633 95.5197 279.781 97.8143 282.612 99.6695C285.542 101.525 288.764 102.452 292.279 102.452C296.087 102.452 299.114 101.818 301.36 100.548C303.703 99.1813 304.875 97.3261 304.875 94.9827C304.875 92.7369 303.996 91.0282 302.238 89.8565C300.481 88.5872 297.991 87.5619 294.769 86.7808L287.885 84.8768C280.952 83.1192 275.533 80.3364 271.628 76.5284C267.722 72.6227 265.769 68.18 265.769 63.2002C265.769 55.877 268.113 50.2138 272.799 46.2105C277.584 42.2072 284.419 40.2055 293.304 40.2055C297.796 40.2055 301.897 40.889 305.607 42.256C309.415 43.5253 312.686 45.3805 315.42 47.8216C318.154 50.165 320.058 52.9478 321.132 56.17L307.511 62.3214C306.535 59.8804 304.679 58.0252 301.945 56.7558C299.212 55.3888 296.185 54.7053 292.865 54.7053C289.545 54.7053 286.957 55.4377 285.102 56.9023C283.247 58.2693 282.319 60.2221 282.319 62.7608C282.319 64.2254 283.149 65.5924 284.809 66.8618C286.469 68.0335 288.861 69.0099 291.986 69.791L300.627 71.8415C305.412 73.0132 309.318 74.8684 312.344 77.4071C315.371 79.8482 317.617 82.631 319.082 85.7555C320.546 88.7824 321.279 91.8582 321.279 94.9827C321.279 99.3766 320.009 103.233 317.471 106.553C315.03 109.873 311.661 112.461 307.365 114.316C303.068 116.073 298.186 116.952 292.718 116.952Z" fill="#282650"/>
<path d="M352.277 115.195V93.8836L361.252 84.0026L382.448 115.195H401.928L371.886 72.2957L399.438 41.963H379.665L352.277 71.7745V21.5762H335.873V115.195H352.277Z" fill="#282650"/>
</svg>
