<svg width="380" height="124" viewBox="0 0 165 47" fill="none" xmlns="http://www.w3.org/2000/svg">
<path d="M79.3063 36.5617L68.5677 9.25305H73.5236L84.5613 36.5617H79.3063ZM57.2737 36.5617L68.2686 9.25305H73.2673L62.5287 36.5617H57.2737ZM63.7953 29.2132V24.8127H77.9969V29.2132H63.7953Z" fill="#282650"/>
<path d="M94.8745 37.0744C93.4504 37.0744 92.1402 36.8607 90.944 36.4335C89.7477 36.0063 88.7224 35.4081 87.8679 34.6391C87.0134 33.8416 86.3583 32.9159 85.9026 31.8621L90.0468 30.025C90.474 30.8225 91.1006 31.4918 91.9266 32.033C92.7811 32.5741 93.721 32.8447 94.7464 32.8447C95.8572 32.8447 96.7401 32.6596 97.3952 32.2893C98.0788 31.8906 98.4206 31.3494 98.4206 30.6658C98.4206 30.0107 98.1642 29.5123 97.6516 29.1705C97.1389 28.8002 96.4126 28.5012 95.4727 28.2733L93.4647 27.7179C91.4424 27.2052 89.8616 26.3935 88.7224 25.2827C87.5831 24.1434 87.0134 22.8474 87.0134 21.3948C87.0134 19.2587 87.697 17.6067 89.0641 16.4389C90.4598 15.2711 92.4535 14.6872 95.0454 14.6872C96.3556 14.6872 97.5519 14.8866 98.6342 15.2854C99.745 15.6556 100.699 16.1968 101.497 16.9089C102.294 17.5924 102.85 18.4042 103.163 19.3441L99.1896 21.1385C98.9048 20.4264 98.3636 19.8853 97.5661 19.515C96.7686 19.1162 95.8857 18.9169 94.9173 18.9169C93.9489 18.9169 93.1941 19.1305 92.6529 19.5577C92.1118 19.9565 91.8412 20.5261 91.8412 21.2667C91.8412 21.6939 92.0833 22.0926 92.5675 22.4629C93.0517 22.8047 93.7495 23.0895 94.6609 23.3174L97.1816 23.9155C98.5772 24.2573 99.7165 24.7985 100.599 25.539C101.482 26.2511 102.138 27.0628 102.565 27.9742C102.992 28.8572 103.206 29.7544 103.206 30.6658C103.206 31.9475 102.835 33.0726 102.095 34.041C101.383 35.0094 100.4 35.7642 99.1469 36.3053C97.8937 36.818 96.4695 37.0744 94.8745 37.0744Z" fill="#282650"/>
<path d="M112.034 30.5804L109.129 27.2907L120.237 15.1999H126.005L112.034 30.5804ZM107.463 36.5617V9.25305H112.248V36.5617H107.463ZM121.049 36.5617L113.53 25.4963L116.648 22.1639L126.731 36.5617H121.049Z" fill="#282650"/>
<path d="M141.339 37.1173C138.975 37.1173 136.896 36.6474 135.102 35.7074C133.336 34.739 131.954 33.3861 130.957 31.6487C129.989 29.9113 129.505 27.889 129.505 25.582V9.21057H134.461V25.582C134.461 26.9776 134.746 28.2023 135.315 29.2562C135.913 30.2816 136.739 31.0933 137.793 31.6914C138.847 32.2611 140.058 32.5459 141.425 32.5459C142.82 32.5459 144.045 32.2611 145.099 31.6914C146.181 31.0933 147.007 30.2816 147.577 29.2562C148.147 28.2023 148.431 26.9776 148.431 25.582V9.21057H153.387V25.582C153.387 27.889 152.889 29.9113 151.892 31.6487C150.924 33.3861 149.528 34.739 147.705 35.7074C145.911 36.6474 143.789 37.1173 141.339 37.1173Z" fill="#282650"/>
<path d="M159.131 36.5192V9.21057H164.087V36.5192H159.131Z" fill="#282650"/>
<rect width="46.3289" height="46.3286" rx="23.1643" fill="#282650"/>
<path d="M12.6543 17.9093H17.9095V23.1645C17.9095 24.5582 17.3558 25.8949 16.3703 26.8804C15.3848 27.866 14.0481 28.4196 12.6543 28.4196C11.2606 28.4196 9.92391 27.866 8.93837 26.8804C7.95284 25.8949 7.39917 24.5582 7.39917 23.1645C7.39917 21.7707 7.95284 20.434 8.93837 19.4485C9.92391 18.463 11.2606 17.9093 12.6543 17.9093Z" fill="#C4F44F"/>
<path d="M23.1635 28.4194C22.1242 28.4194 21.1082 28.7276 20.2441 29.3051C19.3799 29.8825 18.7064 30.7032 18.3087 31.6635C17.911 32.6237 17.8069 33.6803 18.0097 34.6996C18.2124 35.719 18.7129 36.6553 19.4479 37.3902C20.1828 38.1252 21.1191 38.6256 22.1385 38.8284C23.1578 39.0312 24.2144 38.9271 25.1746 38.5294C26.1349 38.1317 26.9556 37.4582 27.533 36.594C28.1105 35.7299 28.4187 34.7139 28.4187 33.6745V28.4194H23.1635Z" fill="#C4F44F"/>
<path d="M23.1637 7.39923C24.5575 7.39923 25.8941 7.9529 26.8797 8.93844C27.8652 9.92397 28.4189 11.2606 28.4189 12.6544V17.9096H17.9087V12.6544C17.9087 11.2607 18.4623 9.92402 19.4478 8.93849C20.4333 7.95296 21.77 7.39927 23.1637 7.39923Z" fill="#C4F44F"/>
<path d="M28.4207 17.9093H38.931V17.9093C38.931 23.714 34.2254 28.4196 28.4207 28.4196V28.4196V17.9093Z" fill="#C4F44F"/>
</svg>
